<svg width="1024" height="1024" xmlns="http://www.w3.org/2000/svg" class="icon">
 <g>
  <title>Layer 1</title>
  <path fill="#565656" id="svg_1" d="m512.05702,1.17256c-282.08811,-0.11724 -510.56465,234.60312 -510.56465,524.31043c0,229.0927 142.92616,423.83323 341.97337,495.35142c26.80578,6.91733 22.69937,-12.66224 22.69937,-26.02793l0,-90.86328c-154.78915,18.64163 -161.06284,-86.64253 -171.44295,-104.22897c-20.98836,-36.81428 -70.60758,-46.19372 -55.77885,-63.78016c35.24675,-18.64163 71.17791,4.68972 112.81243,67.88366c30.11373,45.84199 88.85832,38.10396 118.62985,30.48316c6.50183,-27.55209 20.41802,-52.17311 39.58131,-71.28371c-160.37844,-29.54522 -227.2218,-130.13966 -227.2218,-249.72746c0,-58.03526 18.59295,-111.38079 55.09444,-154.40895c-23.2697,-70.93198 2.16728,-131.66382 5.58929,-140.69153c66.27302,-6.09663 135.16959,48.77306 140.53075,53.11105c37.64217,-10.43462 80.64549,-15.94504 128.78183,-15.94504c48.36448,0 91.48187,5.7449 129.46624,16.29677c12.88959,-10.08289 76.7672,-57.21455 138.36348,-51.46965c3.30795,9.02771 28.17459,68.35263 6.27369,138.34667c36.95776,43.1454 55.77885,96.95991 55.77885,155.11241c0,119.82228 -67.29963,220.53397 -228.13434,249.61022a145.43564,149.48475 0 0 1 43.45959,106.69108l0,131.89831c0.91254,10.55186 0,20.98649 17.11008,20.98649c202.01295,-69.99404 347.44859,-266.14147 347.44859,-497.22731c0,-289.82455 -228.59061,-524.42767 -510.45058,-524.42767l0.00001,-0.00001z"/>
 </g>

</svg>