<svg width="300.005" height="300.005" xmlns="http://www.w3.org/2000/svg" xml:space="preserve" version="1.1">

 <g>
  <title>Layer 1</title>
  <g id="svg_1">
   <g id="svg_2">
    <g id="svg_3">
     <path fill="#565656" id="svg_4" d="m150,0c-82.841,0 -149.998,67.162 -149.998,150s67.157,150.005 149.998,150.005s150.003,-67.164 150.003,-150.005s-67.162,-150 -150.003,-150zm-44.894,78.641l36.466,0l0,23.81l-59.604,0l23.138,-23.81zm111.412,148.227l-134.331,0l0,-108.855l134.332,0l0,108.855l-0.001,0zm-59.383,-124.417l0,-23.81l35.776,0l23.657,23.81l-59.433,0z"/>
     <path fill="#565656" id="svg_5" d="m124.528,177.342c1.992,0 3.984,-0.76 5.501,-2.28l11.542,-11.539l0,36.614c0,4.298 3.483,7.781 7.781,7.781c4.295,0 7.781,-3.483 7.781,-7.781l0,-36.614l11.544,11.542c1.52,1.517 3.512,2.277 5.501,2.277s3.981,-0.76 5.501,-2.28c3.04,-3.04 3.04,-7.965 0,-11.005l-24.821,-24.808c0,-0.003 0,-0.005 -0.005,-0.008c-0.303,-0.303 -0.638,-0.552 -0.973,-0.796c-1.351,-0.973 -2.933,-1.484 -4.528,-1.484c-1.992,0 -3.984,0.76 -5.501,2.277l-24.824,24.821c-3.04,3.037 -3.04,7.962 0,11.002c1.52,1.521 3.509,2.281 5.501,2.281z"/>
    </g>
   </g>
  </g>
  <g id="svg_6"/>
  <g id="svg_7"/>
  <g id="svg_8"/>
  <g id="svg_9"/>
  <g id="svg_10"/>
  <g id="svg_11"/>
  <g id="svg_12"/>
  <g id="svg_13"/>
  <g id="svg_14"/>
  <g id="svg_15"/>
  <g id="svg_16"/>
  <g id="svg_17"/>
  <g id="svg_18"/>
  <g id="svg_19"/>
  <g id="svg_20"/>
 </g>
</svg>